<svg xmlns="http://www.w3.org/2000/svg" xmlns:xlink="http://www.w3.org/1999/xlink" viewBox="0 0 107 107"><defs><style>.a,.d,.e{fill:none;}.b{clip-path:url(#a);}.c{fill:#f4d68b;}.d,.e{stroke:#93713f;stroke-linecap:round;stroke-linejoin:round;}.d{stroke-width:3.553px;}.e{stroke-width:7px;}</style><clipPath id="a"><circle class="a" cx="53.5" cy="53.5" r="50"/></clipPath></defs><g class="b"><path class="c" d="M55,23.5a3.028,3.028,0,0,0-1.517.363C44.517,27.708,35.7,31.936,26.984,36.3c-1.571.5-1.605,2.307-1.971,3.642-2.162,10.5-3.745,21.1-5.247,31.707-.434,2.706.312,5.395.682,8.055,1.2,7.879,2.588,15.724,3.888,23.587H47.254c-.234-2.036-.4-4.078-.471-6.13-.245-5.463-.679-11.217,1.565-16.355,1-2.264,2.3-4.646,4.623-5.761,5.084-2.565,9.366-6.422,13.32-10.463,3.577-3.5,6.562-4.444,8.7-7.293,1.825-4.276-1.8-7.4-6.382-5.912-5.334,1.938-10.429,5.079-16.232,5.311-5.223.082-9.2-4.978-9.29-9.94,7.449-3.338,16.046-5.335,24-2.554a70.868,70.868,0,0,0,13.483,3.3c2.188.181,4.553-2.355,4.273-4.6,2.626-.69,4.339-4.907-.794-7.47-6.073-3.032-17.011-7.447-27.527-11.556A3.827,3.827,0,0,0,55,23.5Z"/><path class="d" d="M55,23.709a3.038,3.038,0,0,0-1.517.363C44.517,27.916,35.7,32.144,26.984,36.51c-1.571.5-1.605,2.306-1.971,3.641-2.162,10.5-3.745,21.1-5.247,31.708-.434,2.706.312,5.4.682,8.054,1.2,7.879,2.588,15.724,3.888,23.587H47.254c-.234-2.036-.4-4.078-.471-6.13-.245-5.462-.679-11.217,1.565-16.355,1-2.263,2.3-4.646,4.623-5.76,5.084-2.566,9.366-6.423,13.32-10.464,3.577-3.5,6.562-4.444,8.7-7.293,1.825-4.275-1.8-7.4-6.382-5.912-5.334,1.939-10.429,5.08-16.232,5.312-5.223.081-9.2-4.978-9.29-9.94,7.449-3.338,16.046-5.335,24-2.555A70.791,70.791,0,0,0,80.57,47.7c2.188.182,4.553-2.355,4.273-4.6,2.626-.69,4.339-4.907-.794-7.47C77.976,32.6,67.038,28.182,56.522,24.072A3.844,3.844,0,0,0,55,23.709Z"/><path class="d" d="M34.9,36.054l22.314-5.472a4.122,4.122,0,0,1,1.8.154c7.92,2.933,18.7,6.868,24.174,9.833,2.9,1.569,1.629,4.66-.076,6.025a4.218,4.218,0,0,1-3.316.814"/></g><circle class="e" cx="53.5" cy="53.5" r="50"/></svg>