<svg xmlns="http://www.w3.org/2000/svg" xmlns:xlink="http://www.w3.org/1999/xlink" viewBox="0 0 107 107"><defs><style>.a,.f{fill:none;}.b{clip-path:url(#a);}.c{fill:#f4d68b;}.d,.e{fill-opacity:0;}.d,.e,.f{stroke:#93713f;stroke-linecap:round;stroke-linejoin:round;}.d{stroke-width:3.555px;}.e{stroke-width:3.555px;}.f{stroke-width:7px;}</style><clipPath id="a"><circle class="a" cx="53.5" cy="53.5" r="50"/></clipPath></defs><g class="b"><path class="c" d="M68.466,103.281H45.418l.743-8.674S35.4,88.213,36.669,79.569C38.345,68.191,39.8,57.05,39.8,57.05s1.226-23.514,1.582-30.269c.5-9.417,8.942-9.393,8.942-1.218,0,11.4.1,14.313-.074,16.584a108.87,108.87,0,0,0,.4,11.152s1.832-29.67,1.832-33.7c0-3.966,8.426-7.435,8.922.743.754,12.453-.841,33.457-.841,33.457S62.308,28.58,63.38,25.542c1.487-4.213,7.309-3.732,7.187,1.735-.247,11.134-1.335,28.748-1.335,28.748s1.085-10.814,1.8-17.6c.495-4.708,6.691-7.93,6.939,1.735A127.506,127.506,0,0,1,77.474,59c-1.036,8.35,1.088,15.088.087,19.579-2.053,9.211-8.848,16.773-8.848,16.773Z"/><path class="d" d="M68.466,103.206H45.418l.743-8.674S35.4,88.137,36.669,79.493C38.345,68.116,39.8,56.974,39.8,56.974s1.226-23.513,1.582-30.268c.5-9.418,8.942-9.394,8.942-1.219,0,11.4.1,14.313-.074,16.584a108.894,108.894,0,0,0,.4,11.153s1.832-29.671,1.832-33.7c0-3.965,8.426-7.435,8.922.743.754,12.453-.841,33.457-.841,33.457s1.751-25.214,2.823-28.252c1.487-4.213,7.309-3.733,7.187,1.735C70.32,38.335,69.232,55.95,69.232,55.95s1.085-10.815,1.8-17.6c.495-4.709,6.691-7.931,6.939,1.735a127.509,127.509,0,0,1-.5,18.835c-1.036,8.349,1.088,15.087.087,19.578-2.053,9.211-8.848,16.773-8.848,16.773Z"/><path class="c" d="M37.66,86.012s-4.708-10.16-6.195-12.886S26.216,61,25.269,58.751c-1.983-4.708,4.709-6.939,7.683-3.965s7.435,11.4,7.435,11.4,5.114,1.953,6.691,2.479c2.974.991,4.957,5.2,4.957,5.2"/><path class="e" d="M37.66,86.012s-4.708-10.16-6.195-12.886S26.216,61,25.269,58.751c-1.983-4.708,4.709-6.939,7.683-3.965s7.435,11.4,7.435,11.4,5.114,1.953,6.691,2.479c2.974.991,4.957,5.2,4.957,5.2"/></g><circle class="f" cx="53.5" cy="53.5" r="50"/></svg>