<svg xmlns="http://www.w3.org/2000/svg" xmlns:xlink="http://www.w3.org/1999/xlink" viewBox="0 0 107 107"><defs><style>.a,.e{fill:none;}.b{clip-path:url(#a);}.c{fill:#f4d68b;}.d{fill-opacity:0;stroke-width:3.555px;}.d,.e{stroke:#93713f;stroke-linecap:round;stroke-linejoin:round;}.e{stroke-width:7px;}</style><clipPath id="a"><circle class="a" cx="53.5" cy="53.5" r="50"/></clipPath></defs><g class="b"><path class="c" d="M5.276,68.409V37.3l12.374,1s14.593-17.3,26.942-15.7c5.624.725,8.331,4.462,9.282,5.062,1.534.967,9.314.259,17.246,1.466,9.816,1.495,11.741,7.073,10.225,12.333-1.534,5.319-6.2,4.535-6.2,4.535s5.3,3.345,4.242,8.7c-.914,4.614-6.363,5.016-6.363,5.016s4.323,3.582,2.828,7.693c-2.289,6.3-9.545,4.683-9.545,4.683s7.319,8.354-1.873,11.363-15.081-1.339-22.193-2.112c-19.221-2.091-25.653-12.6-25.653-12.6Z"/><path class="d" d="M5.194,68.409V37.3l12.374,1S32.16,21.011,44.51,22.6c5.623.725,8.331,4.462,9.282,5.062,1.533.967,9.313.259,17.246,1.466,9.816,1.495,11.74,7.073,10.224,12.333-1.534,5.319-6.2,4.535-6.2,4.535s5.3,3.345,4.243,8.7c-.914,4.614-6.364,5.016-6.364,5.016s4.324,3.582,2.829,7.693c-2.29,6.3-9.546,4.683-9.546,4.683s7.32,8.354-1.872,11.363S49.272,82.112,42.16,81.339c-19.221-2.091-25.652-12.6-25.652-12.6Z"/><path class="d" d="M73.852,45.7s-22.311-7.759-23.75-.368c-1.62,8.325,2.85,11.228,6.322,11.481,4.577.333,17.167,3.223,17.167,3.223S47.505,52.24,46.328,60.4c-1.224,8.495,6.385,8.1,9.807,9.278s12.472,2.884,12.472,2.884-14.83-3.655-18.2-4.473C43.19,66.341,35.32,79.138,54.566,81.31l.588,1.484"/><path class="c" d="M36.627,39.756s5.522,2.593,6,6.547c2.329,19.362,19.337,14.56,17.164,1.046-3.23-20.076-12.64-23.536-12.64-23.536"/><path class="d" d="M36.627,39.756s5.522,2.593,6,6.547c2.329,19.362,19.337,14.56,17.164,1.046-3.23-20.076-12.64-23.536-12.64-23.536"/></g><circle class="e" cx="53.5" cy="53.5" r="50"/></svg>