<svg xmlns="http://www.w3.org/2000/svg" xmlns:xlink="http://www.w3.org/1999/xlink" viewBox="0 0 107 107"><defs><style>.a,.e{fill:none;}.b{clip-path:url(#a);}.c{fill:#f4d68b;}.d{fill-opacity:0;stroke-width:3.555px;}.d,.e{stroke:#93713f;stroke-linecap:round;stroke-linejoin:round;}.e{stroke-width:7px;}</style><clipPath id="a"><circle class="a" cx="53.5" cy="53.5" r="50"/></clipPath></defs><g class="b"><path class="c" d="M69.006,102.486H46.028l.741-8.647s-10.733-6.375-9.463-14.993C38.976,67.5,40.423,56.4,40.423,56.4s-5.5-25.258-5.14-31.993c0-7.5,8.4-6.573,9.318-2.053,2.231,11.006,6.637,30.307,6.637,30.307s-4.751-29.58-4.751-33.6c0-3.953,7.431-8.209,8.894.741s5.74,33.355,5.74,33.355S65.4,28.013,66.465,24.984c1.483-4.2,7.287-3.721,7.166,1.729-.247,11.1-3.862,28.661-3.862,28.661s3.47-14.19,4.522-19.717,7.467-2.938,7.115.446-2.6,15.62-3.419,22.236c-1.034,8.324,1.084,15.042.086,19.519-2.047,9.183-8.821,16.722-8.821,16.722Z"/><path class="d" d="M69.006,102.5H46.028l.741-8.648S36.036,87.478,37.306,78.86c1.67-11.343,3.117-22.451,3.117-22.451s-5.5-25.259-5.14-31.993c0-7.5,8.4-6.573,9.318-2.054,2.231,11.007,6.637,30.308,6.637,30.308s-4.751-29.58-4.751-33.6c0-3.953,7.431-8.209,8.894.741s5.74,33.355,5.74,33.355S65.4,28.026,66.465,25c1.483-4.2,7.287-3.721,7.166,1.73-.247,11.1-3.862,28.661-3.862,28.661s3.47-14.19,4.522-19.717,7.467-2.938,7.115.445-2.6,15.621-3.419,22.237c-1.034,8.324,1.084,15.041.086,19.519-2.047,9.183-8.821,16.721-8.821,16.721Z"/><path class="c" d="M38.294,85.27S33.6,75.14,32.117,72.422s-5.233-12.088-6.177-14.33c-1.977-4.695,4.7-6.918,7.66-3.953S41.012,65.5,41.012,65.5s5.1,1.947,6.671,2.471c2.965.988,4.941,5.188,4.941,5.188"/><path class="d" d="M38.294,85.27S33.6,75.14,32.117,72.422s-5.233-12.088-6.177-14.33c-1.977-4.695,4.7-6.918,7.66-3.953S41.012,65.5,41.012,65.5s5.1,1.947,6.671,2.471c2.965.988,4.941,5.188,4.941,5.188"/></g><circle class="e" cx="53.5" cy="53.5" r="50"/></svg>